<?xml version="1.0" encoding="UTF-8"?>
<svg width="1027px" height="1141px" viewBox="0 0 1027 1141" version="1.1" xmlns="http://www.w3.org/2000/svg" xmlns:xlink="http://www.w3.org/1999/xlink">
    <!-- Generator: Sketch 48.2 (47327) - http://www.bohemiancoding.com/sketch -->
    <title>Untitled</title>
    <desc>Created with Sketch.</desc>
    <defs></defs>
    <g id="Page-1" stroke="none" stroke-width="1" fill="none" fill-rule="evenodd">
        <g id="24HCP_LOGO" fill="#014567" fill-rule="nonzero">
            <path d="M388.89,345.69 C452.656796,260.752942 445.158108,142.048888 371.209712,65.8114764 C297.261316,-10.4259348 178.840923,-21.5386899 92,39.61 C19.87,90.86 -13.78,179.43 6.27,265.27 C9.25470212,277.806569 18.5797854,287.868465 30.8536476,291.796101 C43.1275099,295.723737 56.5616609,292.944796 66.27,284.47 C76.4842077,275.500901 80.9312553,261.637028 77.84,248.4 C66.76,200.11 81.53,148.83 116.4,114.57 C144.385288,87.0514568 182.475443,72.2840368 221.696696,73.7468385 C260.91795,75.2096403 297.80228,92.7733199 323.66,122.3 C364.006204,168.64984 370.184328,235.610387 339,288.56 L314.6,260.67 C310.867806,256.394005 304.923258,254.794441 299.54922,256.620123 C294.175182,258.445806 290.435161,263.335438 290.08,269 L283,374.09 C282.47956,381.794781 288.29615,388.465962 296,389 L401.14,396.08 C401.46,396.08 401.77,396.08 402.14,396.08 C407.638355,396.085306 412.63076,392.871632 414.902585,387.864563 C417.174411,382.857494 416.304991,376.984171 412.68,372.85 L388.89,345.69 Z" id="Shape"></path>
            <path d="M300.53,556 C301.756995,558.710601 304.454627,560.454288 307.43,560.46 L447.64,560.46 L447.64,560.36 L705.75,559.93 C707.759423,559.929998 709.686399,560.728922 711.106337,562.150736 C712.526275,563.57255 713.322654,565.500579 713.32,567.51 L713.32,668.91 C713.336493,675.828808 718.941192,681.433507 725.86,681.45 L787.77,681.45 C794.14,681.45 800.17,675.45 800.17,669.04 L799.17,17.52 C799.153508,10.678512 793.611488,5.13649221 786.77,5.12 L747.81,5.12 C745.48,5.12 739.48,7.44 737.61,9.01 C737.61,9.01 303.36,546 301.75,547.84 C299.766531,550.079915 299.2884,553.277905 300.53,556 Z M450.68,475.43 L704.1,166.25 C706.522412,163.294606 710.765937,162.604497 714,164.64 C716.247364,166.120581 717.579617,168.649219 717.53,171.34 L717.53,480.06 C717.53,482.104819 716.717699,484.065888 715.271793,485.511793 C713.825888,486.957699 711.864819,487.77 709.82,487.77 L456.89,487.77 C454.429674,487.828036 452.082503,486.737618 450.54,484.82 C448.383728,482.028022 448.441795,478.116737 450.68,475.39 L450.68,475.43 Z" id="Shape"></path>
            <path d="M20.92,682.68 L647.92,682.68 C654.12,682.68 659.98,676.81 659.98,670.61 L659.98,621.56 C659.98,615.36 654.12,609.49 647.92,609.49 L183.6,609.49 C180.70837,609.491098 178.084021,607.798856 176.891843,605.164424 C175.699665,602.529991 176.160581,599.441553 178.07,597.27 C228.77,539.7 288.19,470.42 339,409.73 L294.86,406.73 C278.456474,405.59912 265.609874,392.167599 265.21,375.73 C250.26,393.63 234.5,412.55 218.21,432.15 C178.4,479.96 121.21,547.53 71.77,605.24 C54.13,625.81 37.48,645.13 22.93,661.85 C21.29,663.75 19.65,665.62 18.02,667.5 C17.15,668.5 16.29,669.5 15.43,670.5 C13.5232163,672.673772 13.0637634,675.761757 14.2551025,678.396491 C15.4464416,681.031225 18.0684444,682.725877 20.96,682.73 L20.92,682.68 Z" id="Shape"></path>
            <path d="M204.39,209.06 C203.702027,210.279297 203.16795,211.579221 202.8,212.93 C202.20986,215.094584 202.050177,217.35393 202.33,219.58 L156.55,245.58 C154.432529,246.750461 153.110574,248.971606 153.091498,251.390965 C153.072422,253.810324 154.359189,256.052038 156.457941,257.255742 C158.556693,258.459447 161.141377,258.43814 163.22,257.2 L208.99,231.2 C214.943638,235.821005 223.202098,236.06164 229.414701,231.795136 C235.627303,227.528632 238.367843,219.734436 236.192564,212.518644 C234.017284,205.302852 227.425557,200.32197 219.89,200.2 L200.49,166.36 C198.903741,163.591191 195.960835,161.878966 192.769847,161.868303 C189.578859,161.857639 186.624576,163.550158 185.019847,166.308303 C183.415118,169.066448 183.403741,172.471192 184.99,175.24 L204.39,209.06 Z" id="Shape"></path>
            <path d="M317.25,213.33 C317.33,215.49 317.34,217.68 317.25,219.82 C317.231163,220.309534 317.411565,220.785796 317.75,221.14 C318.084151,221.492288 318.54461,221.697336 319.03,221.71 L337.83,222.23 C338.826994,222.230368 339.642908,221.436626 339.67,220.44 C339.74,217.81 339.73,215.13 339.67,212.44 C339.652116,211.951674 339.439674,211.490782 339.08,211.16 C338.717404,210.836269 338.246006,210.66128 337.76,210.67 L318.98,211.4 C317.971189,211.459117 317.198841,212.320754 317.25,213.33 Z" id="Shape"></path>
            <path d="M162.4,132.16 C162.657879,132.575876 163.070793,132.8719 163.547443,132.982618 C164.024093,133.093336 164.525213,133.009627 164.94,132.75 C166.79,131.59 168.69,130.49 170.57,129.48 C171.464161,128.999071 171.799793,127.884771 171.32,126.99 L162.42,110.43 C162.184057,110.000709 161.789084,109.68114 161.32,109.54 C160.853108,109.400462 160.350016,109.450772 159.92,109.68 C157.59,110.93 155.27,112.28 153.02,113.68 C152.608208,113.938257 152.313875,114.347452 152.2,114.82 C152.091042,115.296789 152.177471,115.797353 152.44,116.21 L162.4,132.16 Z" id="Shape"></path>
            <path d="M165.79,301.89 C165.373627,301.635326 164.873127,301.556519 164.398641,301.670921 C163.924155,301.785323 163.514563,302.083559 163.26,302.5 L153.45,318.5 C152.925514,319.367978 153.197587,320.496413 154.06,321.03 C156.2,322.34 158.42,323.61 160.66,324.79 L160.96,324.95 C161.224709,325.091668 161.519779,325.167151 161.82,325.17 C162.510442,325.168817 163.14277,324.783251 163.46,324.17 L172,307.42 C172.449287,306.524092 172.103438,305.433337 171.22,304.96 C169.38,304 167.56,303 165.79,301.89 Z" id="Shape"></path>
            <path d="M110.59,162.8 L127.2,171.61 C127.463487,171.754785 127.759354,171.830471 128.06,171.83 C128.746842,171.825102 129.374433,171.440077 129.69,170.83 L129.9,170.42 C130.9,168.51 132,166.61 133.14,164.77 C133.667266,163.90156 133.400136,162.770707 132.54,162.23 L116.54,152.38 C115.675542,151.84787 114.543444,152.116352 114.01,152.98 C112.63,155.22 111.3,157.54 110.01,159.89 L109.8,160.3 C109.566569,160.735026 109.51881,161.245914 109.667569,161.716668 C109.816327,162.187422 110.14898,162.5781 110.59,162.8 Z" id="Shape"></path>
            <path d="M97.74,223.67 L97.82,223.67 L116.6,222.91 C117.08812,222.891784 117.548966,222.680228 117.880979,222.321954 C118.212992,221.96368 118.388922,221.488093 118.37,221 C118.28,218.81 118.26,216.63 118.32,214.5 C118.331189,214.012849 118.147629,213.541352 117.81,213.19 C117.472131,212.837122 117.008395,212.632215 116.52,212.62 L97.73,212.14 C97.2420564,212.124245 96.7688481,212.308471 96.42,212.65 C96.0649335,212.983127 95.8563717,213.443402 95.84,213.93 C95.78,216.58 95.84,219.26 95.91,221.93 C95.9580265,222.905371 96.7634477,223.671182 97.74,223.67 Z" id="Shape"></path>
            <path d="M127.87,263.82 L111.34,272.82 C110.44954,273.304448 110.118645,274.417864 110.6,275.31 C111.86,277.64 113.21,279.95 114.6,282.21 C114.859279,282.624689 115.273762,282.918338 115.750967,283.025427 C116.228172,283.132517 116.728387,283.044134 117.14,282.78 L133.05,272.78 C133.462563,272.518892 133.754434,272.104516 133.861342,271.628116 C133.968251,271.151717 133.881431,270.652359 133.62,270.24 C132.47,268.42 131.37,266.53 130.33,264.63 C129.871025,263.730903 128.773362,263.369477 127.87,263.82 Z" id="Shape"></path>
            <path d="M263.93,128.88 C264.88,129.45 265.83,129.98 266.78,130.5 C267.9,131.12 268.95,131.7 269.98,132.34 C270.280601,132.523902 270.627689,132.617616 270.98,132.61 C271.121652,132.613121 271.263039,132.596289 271.4,132.56 C271.874868,132.451222 272.285838,132.155613 272.54,131.74 L282.4,115.74 C282.654674,115.323627 282.733481,114.823127 282.619079,114.348641 C282.504677,113.874155 282.206441,113.464563 281.79,113.21 C279.57,111.876667 277.276667,110.566667 274.91,109.28 C274.020796,108.788693 272.901675,109.110999 272.41,110 L263.29,126.43 C262.818108,127.286947 263.099285,128.363326 263.93,128.88 Z" id="Shape"></path>
            <path d="M214.11,117.61 L214.18,117.61 C216.34,117.53 218.52,117.52 220.67,117.61 C221.158792,117.626146 221.633711,117.445971 221.988793,117.109676 C222.343876,116.77338 222.549577,116.308948 222.56,115.82 L223.1,97 C223.113443,96.5119513 222.932364,96.0385692 222.596636,95.6840853 C222.260908,95.3296014 221.798058,95.1230821 221.31,95.11 C218.68,95.03 215.99,95.05 213.31,95.11 C212.82188,95.1282161 212.361034,95.3397718 212.029021,95.6980458 C211.697008,96.0563198 211.521078,96.5319069 211.54,97.02 L212.25,115.8 C212.266446,116.812305 213.097623,117.621138 214.11,117.61 Z" id="Shape"></path>
            <path d="M305.34,169.74 C305.570712,170.172369 305.965205,170.494135 306.435124,170.633231 C306.905042,170.772327 307.411117,170.717129 307.84,170.48 L324.38,161.56 C324.810362,161.327308 325.130335,160.932803 325.269195,160.463682 C325.408055,159.99456 325.354368,159.489452 325.12,159.06 C323.88,156.76 322.53,154.44 321.12,152.17 C320.862346,151.753659 320.448599,151.457929 319.971267,151.348932 C319.493936,151.239935 318.992833,151.326762 318.58,151.59 L302.65,161.59 C301.79694,162.137244 301.539029,163.266717 302.07,164.13 C303.2,165.92 304.3,167.82 305.34,169.74 Z" id="Shape"></path>
            <path d="M221.64,316.5 C219.5,316.59 217.31,316.6 215.14,316.55 L215.09,316.55 C214.093006,316.549632 213.277092,317.343374 213.25,318.34 L212.76,337.13 C212.73754,338.144224 213.536053,338.987347 214.55,339.02 C215.6,339.02 216.65,339.02 217.71,339.02 C219.31,339.02 220.93,339.02 222.53,338.93 C223.544129,338.881379 224.329581,338.024522 224.29,337.01 L223.55,318.23 C223.531784,317.74188 223.320228,317.281034 222.961954,316.949021 C222.60368,316.617008 222.128093,316.441078 221.64,316.46 L221.64,316.5 Z" id="Shape"></path>
            <path d="M858.17,155.81 L1014.64,155.81 C1020.387,155.729236 1025.02473,151.087071 1025.1,145.34 L1025.1,123.6 C1025.09449,117.825387 1020.41461,113.145513 1014.64,113.14 L958,113.14 L958,48 L1014.66,48 C1020.43461,47.9944872 1025.11449,43.3146135 1025.12,37.54 L1025.12,15.54 C1025.04461,9.7946206 1020.40538,5.15539424 1014.66,5.08 L858.17,5.08 C852.424621,5.15539424 847.785394,9.7946206 847.71,15.54 L847.71,37.54 C847.715513,43.3146135 852.395387,47.9944872 858.17,48 L917.43,48 L917.43,113.12 L858.17,113.12 C852.395387,113.125513 847.715513,117.805387 847.71,123.58 L847.71,145.32 C847.774522,151.074878 852.41533,155.728996 858.17,155.81 Z" id="Shape"></path>
            <path d="M936.17,356.94 C979.305147,356.781222 1016.33299,326.200901 1024.64201,283.873294 C1032.95103,241.545687 1010.23153,199.236805 970.357457,182.7831 C930.483384,166.329394 884.538729,180.30458 860.580173,216.174536 C836.621617,252.044492 841.309037,299.83827 871.78,330.37 C888.864449,347.424284 912.0303,356.983481 936.17,356.94 Z M936.17,217.73 C962.98,217.73 984.8,239.33 984.8,265.88 C984.8,292.11 962.53,314.27 936.17,314.27 C909.511215,314.27 887.9,292.658785 887.9,266 C887.9,239.341215 909.511215,217.73 936.17,217.73 Z" id="Shape"></path>
            <path d="M1014.64,373.59 L916.31,373.59 C876.52,373.59 845.31,405.07 845.31,445.27 C845.31,485.47 876.49,517.19 916.31,517.19 L1014.64,517.19 C1020.38921,517.114487 1025.02998,512.469284 1025.1,506.72 L1025.1,484.27 C1025.09449,478.495387 1020.41461,473.815513 1014.64,473.81 L917.73,473.81 C900.51,473.81 888.01,461.81 888.01,445.27 C888.01,428.73 900.33,416.97 918.01,416.97 L1014.68,416.97 C1020.45461,416.964487 1025.13449,412.284613 1025.14,406.51 L1025.14,384.05 C1025.06416,378.289254 1020.40099,373.643852 1014.64,373.59 Z" id="Shape"></path>
            <path d="M1014.64,545.89 L858.17,545.89 C852.395387,545.895513 847.715513,550.575387 847.71,556.35 L847.71,578.1 C847.785394,583.845379 852.424621,588.484606 858.17,588.56 L912.47,588.56 L912.47,605.14 L853.13,634.92 C849.726763,636.672121 847.622295,640.213218 847.71,644.04 L847.71,668.86 C847.631904,672.58456 849.535049,676.071121 852.71,678.02 C855.999101,679.920136 860.042389,679.961859 863.37,678.13 L917.79,648.78 C928.23,669.09 947.09,681.45 968.31,681.45 C999.63,681.45 1025.1,655.66 1025.1,623.95 L1025.1,556.35 C1025.09449,550.575387 1020.41461,545.895513 1014.64,545.89 Z M984.8,621.35 C984.8,630.64 976.87,638.78 967.8,638.78 C957.97,638.78 949.67,630.78 949.67,621.35 L949.67,588.8 L984.76,588.8 L984.8,621.35 Z" id="Shape"></path>
            <path d="M119.6,929.84 C147.12,929.84 171.84,919.96 191.15,901.22 C193.267839,899.072513 194.419654,896.155062 194.34,893.14 C194.275211,890.615817 193.19334,888.224883 191.34,886.51 L174.05,868.66 C170.236516,864.994103 164.249524,864.863668 160.28,868.36 C148.14,878.17 134.82,883.14 120.69,883.14 C105.125138,883.212936 90.2275856,876.825167 79.55,865.5 C68.8364583,854.151383 62.9151875,839.106412 63.02,823.5 C63.02,789.75 88.23,763.31 120.41,763.31 C135.022257,763.458461 149.097071,768.840738 160.08,778.48 C162.003915,780.443648 164.651365,781.528668 167.4,781.48 C170.013614,781.360492 172.464044,780.175033 174.18,778.2 L191.12,760.7 C193.192043,758.697885 194.321682,755.913481 194.230259,753.033643 C194.138835,750.153804 192.834861,747.446658 190.64,745.58 C169.58,726.7 147.64,718.27 119.57,718.27 C81.5387568,717.900193 46.237125,737.977619 27.1139488,770.853391 C7.99077269,803.729162 7.99077269,844.340838 27.1139488,877.216609 C46.237125,910.092381 81.5387568,930.169807 119.57,929.8 L119.6,929.84 Z" id="Shape"></path>
            <path d="M229.57,721.11 L255.57,721.11 C261.280624,721.11 265.91,725.739376 265.91,731.45 L265.91,916.71 C265.887987,922.395574 261.275614,926.994539 255.59,927 L229.59,927 C223.884899,927 219.26,922.375101 219.26,916.67 L219.26,731.45 C219.259976,725.751071 223.871095,721.126535 229.57,721.11 Z" id="Shape"></path>
            <path d="M343.45,927 L369.45,927 C375.127423,926.924509 379.710002,922.337493 379.78,916.66 L379.78,764.66 L417.58,764.66 C423.288451,764.698823 427.950492,760.108369 428,754.4 L428,731.45 C427.994487,725.741661 423.368339,721.115513 417.66,721.11 L295.32,721.11 C289.619473,721.126521 285.005484,725.749451 285,731.45 L285,754.4 C285.01102,760.104434 289.635558,764.724499 295.34,764.73 L333.14,764.73 L333.14,916.73 C333.24716,922.372499 337.807128,926.914775 343.45,927 Z" id="Shape"></path>
            <path d="M457.34,721.11 L483.34,721.11 C489.050624,721.11 493.68,725.739376 493.68,731.45 L493.68,916.7 C493.65801,922.387202 489.047234,926.989042 483.36,927 L457.36,927 C451.65878,927.0166 447.022052,922.411201 447,916.71 L447,731.45 C447,725.739376 451.629376,721.11 457.34,721.11 Z" id="Shape"></path>
            <path d="M661.88,735.09 L661.88,731.45 C661.804753,725.774719 657.225206,721.190738 651.55,721.11 L534.55,721.11 C528.874794,721.190738 524.295247,725.774719 524.22,731.45 L524.22,754.68 C524.300979,760.357355 528.892434,764.935501 534.57,765 L596.64,765 L516.75,909.23 C516.336771,909.973245 516.119937,910.809605 516.12,911.66 L516.12,916.66 C516.190115,922.341328 520.778672,926.929885 526.46,927 L646,927 C651.704434,926.98898 656.324499,922.364442 656.33,916.66 L656.33,893.44 C656.302528,887.751182 651.688874,883.150927 646,883.14 L582.69,883.14 L661.28,737.47 C661.672297,736.737932 661.878359,735.920553 661.88,735.09 Z" id="Shape"></path>
            <path d="M685.14,731.45 L685.14,916.7 C685.167499,922.392712 689.787224,926.994566 695.48,927 L809.37,927 C815.074434,926.98898 819.694499,922.364442 819.7,916.66 L819.7,893.72 C819.694499,888.015558 815.074434,883.39102 809.37,883.38 L731.56,883.38 L731.56,844.48 L795.66,844.48 C801.366721,844.480003 805.994481,839.856719 806,834.15 L806,810.92 C805.924629,805.246411 801.343589,800.665371 795.67,800.59 L731.57,800.59 L731.57,764.73 L809.38,764.73 C815.082816,764.724487 819.704487,760.102816 819.71,754.4 L819.71,731.45 C819.704499,725.745558 815.084434,721.12102 809.38,721.11 L695.48,721.11 C689.771661,721.115513 685.145513,725.741661 685.14,731.45 Z" id="Shape"></path>
            <path d="M1014.77,721.11 L989,721.11 C983.295566,721.12102 978.675501,725.745558 978.67,731.45 L978.67,834.67 L870.67,719.89 C869.724162,718.881269 868.402805,718.309284 867.02,718.31 L860.02,718.31 C854.420843,718.313362 849.84162,722.772895 849.69,728.37 L849.69,916.7 C849.78117,922.354219 854.345695,926.914317 860,927 L885.47,927 C891.174434,926.98898 895.794499,922.364442 895.8,916.66 L895.8,809 L1004.33,928.17 C1005.27942,929.216275 1006.62717,929.812046 1008.04,929.81 L1014.76,929.81 C1020.35916,929.806638 1024.93838,925.347105 1025.09,919.75 L1025.09,731.45 C1025.01488,725.778545 1020.4413,721.196097 1014.77,721.11 Z" id="Shape"></path>
            <path d="M88.37,960.59 L32.24,960.59 C27.0784223,960.595512 22.8955116,964.778422 22.89,969.94 L22.89,1128.05 C22.8955116,1133.21158 27.0784223,1137.39449 32.24,1137.4 L54.24,1137.4 C59.3768285,1137.33531 63.5253103,1133.18683 63.59,1128.05 L63.59,1076.74 L88.64,1076.74 C120.64,1076.74 146.71,1050.47 146.71,1018.19 C146.68,986.43 120.52,960.59 88.37,960.59 Z M86.46,1038 L63.56,1038.00022 L63.56,999.6 L86.46,999.6 C97.37,999.6 106.24,1007.83 106.24,1017.95 C106.336975,1023.24985 104.292981,1028.36495 100.570287,1032.13845 C96.8475926,1035.91196 91.7606787,1038.02512 86.46,1038 Z" id="Shape"></path>
            <path d="M298.8,1016.75 C298.8,985.75 273.29,960.59 241.93,960.59 L173.62,960.59 C168.458422,960.595512 164.275512,964.778422 164.27,969.94 L164.27,1128.05 C164.275512,1133.21158 168.458422,1137.39449 173.62,1137.4 L195.62,1137.4 C200.756828,1137.33531 204.90531,1133.18683 204.97,1128.05 L204.97,1072 L223.7,1072 L254.13,1132.63 C255.698945,1135.65447 258.853767,1137.52097 262.26,1137.44 L287.3,1137.44 C290.637104,1137.51649 293.764978,1135.81937 295.52,1132.98 C297.216349,1130.02651 297.246685,1126.40146 295.6,1123.42 L265.34,1067.32 C286.12,1057.06 298.8,1038.11 298.8,1016.75 Z M239.3,1036.75 L205.18,1036.75 L205.18,998.85 L239.3,998.85 C249.51,998.85 258.13,1007.25 258.13,1017.2 C258.13,1027.83 249.51,1036.78 239.3,1036.78 L239.3,1036.75 Z" id="Shape"></path>
            <path d="M466.25,984.82 C435.5587,953.878946 387.278241,948.943257 350.961059,973.034064 C314.643876,997.124871 300.416583,1043.52474 316.987696,1083.83234 C333.558808,1124.13995 376.307669,1147.11599 419.067731,1138.69686 C461.827792,1130.27772 492.675922,1092.81098 492.73,1049.23 C492.891704,1025.07893 483.351699,1001.8738 466.25,984.82 Z M401.93,1099.11 C374.395743,1099.07694 352.083061,1076.76426 352.05,1049.23 C352.05,1021.47 374.43,998.88 401.93,998.88 C429.1,998.88 452.05,1021.94 452.05,1049.23 C451.956271,1076.83278 429.532912,1099.14876 401.93,1099.11 Z" id="Shape"></path>
            <path d="M571.73,960.59 L549.28,960.59 C544.120701,960.601001 539.941001,964.780701 539.93,969.94 L539.93,1082.67 C539.93,1096.01 532.75,1101.98 525.63,1101.98 C519.86,1101.98 516.34,1099.05 513.4,1095.88 L513.28,1095.75 C509.1,1091.57 503.81,1091.41 499.47,1095.35 L499.27,1095.54 L486.85,1108.2 L486.64,1108.44 C483.806059,1111.70386 483.436742,1116.43599 485.73,1120.1 C485.84,1120.26 485.95,1120.42 486.07,1120.57 C495.741493,1132.7829 510.491609,1139.87033 526.07,1139.79 C541.31,1139.79 555.14,1134.43 565,1124.7 C575.49,1114.35 581,1099.82 581,1082.7 L581,969.94 C580.994756,964.809457 576.860309,960.639329 571.73,960.59 Z" id="Shape"></path>
            <path d="M716.94,960.59 L619.73,960.59 C614.568422,960.595512 610.385512,964.778422 610.38,969.94 L610.38,1128.05 C610.385512,1133.21158 614.568422,1137.39449 619.73,1137.4 L716.94,1137.4 C722.099299,1137.389 726.278999,1133.2093 726.29,1128.05 L726.29,1108.46 C726.278999,1103.3007 722.099299,1099.121 716.94,1099.11 L651.05,1099.11 L651.05,1067 L705.23,1067 C710.391578,1066.99449 714.574488,1062.81158 714.58,1057.65 L714.58,1037.82 C714.51531,1032.68317 710.366828,1028.53469 705.23,1028.47 L651.05,1028.47 L651.05,998.93 L716.94,998.93 C722.099299,998.918999 726.278999,994.739299 726.29,989.58 L726.29,969.99 C726.297968,967.50319 725.317037,965.115212 723.563283,963.35208 C721.809529,961.588947 719.426818,960.595295 716.94,960.59 Z" id="Shape"></path>
            <path d="M871,1086.67 C867.552707,1083.35103 862.137971,1083.225 858.54,1086.38 C848.27,1094.67 837.02,1098.88 825.08,1098.88 C797.79,1098.88 776.4,1076.76 776.4,1048.52 C776.4,1020.01 797.68,997.68 824.85,997.68 C837.188991,997.807866 849.073806,1002.35248 858.35,1010.49 C860.087497,1012.26913 862.483698,1013.25005 864.97,1013.2 C867.347012,1013.0949 869.573954,1012.00858 871.12,1010.2 L885.57,995.28 C887.441651,993.467264 888.461969,990.949215 888.380109,988.344913 C888.298248,985.74061 887.121803,983.291611 885.14,981.6 C867.07,965.39 848.25,958.16 824.14,958.16 C791.475019,957.817187 761.143566,975.04725 744.711313,1003.2802 C728.279059,1031.51315 728.279059,1066.39685 744.711313,1094.6298 C761.143566,1122.86275 791.475019,1140.09281 824.14,1139.75 C847.77,1139.75 868.99,1131.27 885.58,1115.17 C887.492031,1113.23316 888.532029,1110.60067 888.46,1107.88 C888.399702,1105.59915 887.42709,1103.43779 885.76,1101.88 L871,1086.67 Z" id="Shape"></path>
            <path d="M1015.75,960.59 L911.38,960.59 C906.220701,960.601001 902.041001,964.780701 902.03,969.94 L902.03,989.53 C902.041001,994.689299 906.220701,998.868999 911.38,998.88 L943.11,998.88 L943.11,1128.05 C943.17469,1133.18683 947.323172,1137.33531 952.46,1137.4 L974.68,1137.4 C979.814613,1137.33006 983.960058,1133.18461 984.03,1128.05 L984.03,998.88 L1015.75,998.88 C1020.91158,998.874488 1025.09449,994.691578 1025.1,989.53 L1025.1,969.94 C1025.09449,964.778422 1020.91158,960.595512 1015.75,960.59 Z" id="Shape"></path>
        </g>
    </g>
</svg>